<svg width="1940" height="343" viewBox="0 0 1940 343" fill="none" xmlns="http://www.w3.org/2000/svg">
<g clip-path="url(#clip0_0_26)">
<rect width="1940" height="343" fill="white"/>
<rect x="-3.89996" width="80.3148" height="20.5514" rx="3" fill="#E14646" fill-opacity="0.3"/>
<path d="M3.75291 14V3.81818H7.19325C7.98871 3.81818 8.64164 3.95407 9.15206 4.22585C9.66248 4.49432 10.0403 4.86387 10.2856 5.33452C10.5308 5.80516 10.6535 6.34044 10.6535 6.94034C10.6535 7.54025 10.5308 8.07221 10.2856 8.53622C10.0403 9.00024 9.66413 9.36482 9.15703 9.62997C8.64993 9.89181 8.00197 10.0227 7.21314 10.0227H4.42905V8.90909H7.17337C7.71693 8.90909 8.15443 8.82955 8.48587 8.67045C8.82062 8.51136 9.06257 8.28598 9.21172 7.99432C9.36418 7.69934 9.44041 7.34801 9.44041 6.94034C9.44041 6.53267 9.36418 6.17637 9.21172 5.87145C9.05926 5.56652 8.81565 5.3312 8.4809 5.16548C8.14614 4.99645 7.70367 4.91193 7.15348 4.91193H4.98587V14H3.75291ZM8.54553 9.42614L11.0512 14H9.61939L7.15348 9.42614H8.54553ZM15.6686 14.1591C14.9328 14.1591 14.2981 13.9967 13.7645 13.6719C13.2342 13.3438 12.8248 12.8864 12.5365 12.2997C12.2514 11.7098 12.1089 11.0237 12.1089 10.2415C12.1089 9.45928 12.2514 8.76989 12.5365 8.1733C12.8248 7.57339 13.2259 7.10606 13.7396 6.77131C14.2566 6.43324 14.8599 6.2642 15.5493 6.2642C15.947 6.2642 16.3397 6.33049 16.7275 6.46307C17.1153 6.59564 17.4683 6.81108 17.7865 7.10938C18.1047 7.40436 18.3582 7.79545 18.5471 8.28267C18.736 8.76989 18.8305 9.36979 18.8305 10.0824V10.5795H12.9441V9.56534H17.6373C17.6373 9.13447 17.5511 8.75 17.3788 8.41193C17.2098 8.07386 16.9678 7.80705 16.6529 7.61151C16.3414 7.41596 15.9735 7.31818 15.5493 7.31818C15.0819 7.31818 14.6776 7.43419 14.3362 7.66619C13.9981 7.89489 13.7379 8.19318 13.5556 8.56108C13.3734 8.92898 13.2822 9.32339 13.2822 9.74432V10.4205C13.2822 10.9972 13.3816 11.486 13.5805 11.8871C13.7827 12.2848 14.0627 12.5881 14.4207 12.7969C14.7787 13.0024 15.1946 13.1051 15.6686 13.1051C15.9768 13.1051 16.2552 13.062 16.5038 12.9759C16.7557 12.8864 16.9728 12.7538 17.1551 12.5781C17.3374 12.3991 17.4782 12.1771 17.5777 11.9119L18.7112 12.2301C18.5919 12.6146 18.3913 12.9527 18.1096 13.2443C17.8279 13.5327 17.4799 13.758 17.0656 13.9205C16.6513 14.0795 16.1856 14.1591 15.6686 14.1591ZM23.4988 14.1591C22.8625 14.1591 22.3007 13.9983 21.8135 13.6768C21.3262 13.352 20.9451 12.8946 20.67 12.3047C20.3949 11.7114 20.2574 11.0104 20.2574 10.2017C20.2574 9.39962 20.3949 8.7036 20.67 8.11364C20.9451 7.52367 21.3279 7.06794 21.8184 6.74645C22.309 6.42495 22.8757 6.2642 23.5187 6.2642C24.0159 6.2642 24.4086 6.34706 24.697 6.51278C24.9886 6.67519 25.2107 6.8608 25.3632 7.0696C25.519 7.27509 25.6399 7.44413 25.7261 7.5767H25.8255V3.81818H26.9988V14H25.8653V12.8267H25.7261C25.6399 12.9659 25.5173 13.1416 25.3582 13.3537C25.1991 13.5625 24.9721 13.7498 24.6771 13.9155C24.3821 14.0779 23.9894 14.1591 23.4988 14.1591ZM23.6579 13.1051C24.1286 13.1051 24.5263 12.9825 24.8511 12.7372C25.1759 12.4886 25.4228 12.1456 25.5919 11.7081C25.7609 11.2673 25.8454 10.7585 25.8454 10.1818C25.8454 9.61174 25.7626 9.11293 25.5968 8.68537C25.4311 8.2545 25.1859 7.91974 24.861 7.68111C24.5362 7.43916 24.1352 7.31818 23.6579 7.31818C23.1608 7.31818 22.7465 7.44579 22.415 7.70099C22.0869 7.95289 21.84 8.29593 21.6743 8.73011C21.5119 9.16098 21.4306 9.64489 21.4306 10.1818C21.4306 10.7254 21.5135 11.2192 21.6792 11.6634C21.8483 12.1042 22.0968 12.4555 22.425 12.7173C22.7564 12.9759 23.1674 13.1051 23.6579 13.1051ZM36.5691 6.36364V7.35795H32.6118V6.36364H36.5691ZM33.7652 4.53409H34.9385V11.8125C34.9385 12.1439 34.9865 12.3925 35.0826 12.5582C35.1821 12.7206 35.308 12.83 35.4605 12.8864C35.6163 12.9394 35.7803 12.9659 35.9527 12.9659C36.0819 12.9659 36.188 12.9593 36.2708 12.946C36.3537 12.9295 36.42 12.9162 36.4697 12.9062L36.7083 13.9602C36.6288 13.9901 36.5178 14.0199 36.3752 14.0497C36.2327 14.0829 36.0521 14.0994 35.8333 14.0994C35.5019 14.0994 35.1771 14.0282 34.8589 13.8857C34.544 13.7431 34.2822 13.526 34.0734 13.2344C33.8679 12.9427 33.7652 12.5748 33.7652 12.1307V4.53409ZM40.5812 14.179C40.0973 14.179 39.6582 14.0878 39.2637 13.9055C38.8693 13.7199 38.5561 13.4531 38.3241 13.1051C38.0921 12.7538 37.9761 12.3295 37.9761 11.8324C37.9761 11.3949 38.0623 11.0402 38.2346 10.7685C38.407 10.4934 38.6373 10.2779 38.9257 10.1222C39.214 9.96638 39.5322 9.85038 39.8802 9.77415C40.2315 9.6946 40.5845 9.63163 40.9392 9.58523C41.4032 9.52557 41.7794 9.48082 42.0677 9.45099C42.3594 9.41785 42.5715 9.36316 42.7041 9.28693C42.84 9.2107 42.9079 9.07812 42.9079 8.8892V8.84943C42.9079 8.3589 42.7737 7.97775 42.5052 7.70597C42.2401 7.43419 41.8374 7.2983 41.2971 7.2983C40.737 7.2983 40.2978 7.42093 39.9797 7.66619C39.6615 7.91146 39.4377 8.1733 39.3085 8.4517L38.1949 8.05398C38.3937 7.58996 38.6589 7.22869 38.9903 6.97017C39.3251 6.70833 39.6896 6.52604 40.0841 6.4233C40.4818 6.31723 40.8729 6.2642 41.2574 6.2642C41.5026 6.2642 41.7843 6.29403 42.1025 6.35369C42.424 6.41004 42.7339 6.5277 43.0322 6.70668C43.3338 6.88565 43.5841 7.15578 43.7829 7.51705C43.9818 7.87831 44.0812 8.36222 44.0812 8.96875V14H42.9079V12.9659H42.8483C42.7687 13.1316 42.6361 13.3089 42.4505 13.4979C42.2649 13.6868 42.018 13.8475 41.7098 13.9801C41.4015 14.1127 41.0253 14.179 40.5812 14.179ZM40.7602 13.125C41.2242 13.125 41.6153 13.0339 41.9335 12.8516C42.255 12.6693 42.4969 12.4339 42.6593 12.1456C42.8251 11.8572 42.9079 11.554 42.9079 11.2358V10.1619C42.8582 10.2216 42.7488 10.2763 42.5798 10.326C42.4141 10.3724 42.2218 10.4138 42.0031 10.4503C41.7877 10.4834 41.5772 10.5133 41.3717 10.5398C41.1695 10.563 41.0055 10.5829 40.8795 10.5994C40.5746 10.6392 40.2895 10.7038 40.0244 10.7933C39.7626 10.8795 39.5504 11.0104 39.388 11.1861C39.2289 11.3584 39.1494 11.5937 39.1494 11.892C39.1494 12.2997 39.3002 12.608 39.6018 12.8168C39.9067 13.0223 40.2929 13.125 40.7602 13.125ZM49.3051 17.0227C48.7384 17.0227 48.2511 16.9498 47.8435 16.804C47.4358 16.6615 47.0961 16.4725 46.8243 16.2372C46.5558 16.0052 46.342 15.7566 46.183 15.4915L47.1176 14.8352C47.2237 14.9744 47.3579 15.1335 47.5203 15.3125C47.6827 15.4948 47.9048 15.6522 48.1865 15.7848C48.4715 15.9207 48.8444 15.9886 49.3051 15.9886C49.9216 15.9886 50.4304 15.8395 50.8314 15.5412C51.2324 15.2429 51.433 14.7756 51.433 14.1392V12.5881H51.3335C51.2473 12.7273 51.1247 12.8996 50.9656 13.1051C50.8098 13.3073 50.5845 13.4879 50.2895 13.647C49.9978 13.8028 49.6034 13.8807 49.1063 13.8807C48.4898 13.8807 47.9363 13.7348 47.4457 13.4432C46.9585 13.1515 46.5724 12.7273 46.2874 12.1705C46.0056 11.6136 45.8648 10.9375 45.8648 10.142C45.8648 9.35985 46.0023 8.67874 46.2774 8.09872C46.5525 7.51539 46.9353 7.06463 47.4259 6.74645C47.9164 6.42495 48.4831 6.2642 49.1261 6.2642C49.6233 6.2642 50.0177 6.34706 50.3094 6.51278C50.6044 6.67519 50.8297 6.8608 50.9855 7.0696C51.1446 7.27509 51.2672 7.44413 51.3534 7.5767H51.4727V6.36364H52.6063V14.2188C52.6063 14.875 52.4571 15.4086 52.1588 15.8196C51.8638 16.2339 51.4661 16.5372 50.9656 16.7294C50.4685 16.925 49.915 17.0227 49.3051 17.0227ZM49.2653 12.8267C49.736 12.8267 50.1337 12.719 50.4585 12.5036C50.7833 12.2881 51.0303 11.9782 51.1993 11.5739C51.3683 11.1695 51.4528 10.6856 51.4528 10.1222C51.4528 9.57197 51.37 9.08641 51.2043 8.66548C51.0385 8.24455 50.7933 7.91477 50.4685 7.67614C50.1437 7.4375 49.7426 7.31818 49.2653 7.31818C48.7682 7.31818 48.3539 7.44413 48.0224 7.69602C47.6943 7.94792 47.4474 8.28598 47.2817 8.71023C47.1193 9.13447 47.0381 9.60511 47.0381 10.1222C47.0381 10.6525 47.1209 11.1214 47.2866 11.5291C47.4557 11.9335 47.7043 12.2517 48.0324 12.4837C48.3638 12.7124 48.7748 12.8267 49.2653 12.8267Z" fill="#37352F"/>
<path d="M-4.00006 0H1944V343H-4.00006V0Z" fill="#CCFFE2"/>
<path fill-rule="evenodd" clip-rule="evenodd" d="M1943.55 237.165V342.999H475.378C535.532 293.689 599.914 248.213 668.418 207.173C1082.63 -40.9792 1540.57 29.3665 1943.55 237.165Z" fill="#FFECEA"/>
<path fill-rule="evenodd" clip-rule="evenodd" d="M1373.87 169.08C1373.93 113.585 1408.92 58.5252 1467.21 46.2886C1518.96 35.4249 1554.8 83.747 1584.16 124.933C1611.76 163.654 1640.07 210.579 1611.16 248.223C1579.64 289.281 1518.29 294.69 1466.96 277.572C1415.17 260.296 1373.82 220.063 1373.87 169.08Z" fill="#0018A4"/>
<path fill-rule="evenodd" clip-rule="evenodd" d="M135.668 64.0355C166.613 63.0843 197.932 81.711 205.784 114.146C212.755 142.942 186.443 163.876 163.996 181.054C142.892 197.204 117.227 213.893 95.7255 198.369C72.2754 181.438 68.1763 147.166 76.8157 118.11C85.5344 88.7876 107.239 64.9093 135.668 64.0355Z" fill="white"/>
<rect x="-4" width="1944" height="100" fill="#0018A4"/>
<path d="M9.35818 33.3H10.0142L21.6172 62H20.9612L19.2802 57.818H13.8682L15.5492 62H14.8932L13.2122 57.818H0.0511837L-1.62982 62H-2.28582L-0.604816 57.818H-6.01682L-7.69782 62H-8.35382L3.29018 33.3H3.94618L6.65218 40.024L9.35818 33.3ZM2.63418 51.586H10.6702L6.65218 41.664L2.63418 51.586ZM3.61818 34.12L-3.43382 51.586H1.97818L6.32418 40.844L3.61818 34.12ZM6.98018 40.844L11.3262 51.586H16.7382L9.68618 34.12L6.98018 40.844ZM0.338184 57.162H12.9252L10.9162 52.242H2.34718L0.338184 57.162ZM11.5722 52.242L13.5812 57.162H18.9932L17.0252 52.242H11.5722ZM-0.317816 57.162L1.69118 52.242H-3.72082L-5.72982 57.162H-0.317816ZM28.7935 62V42.689C26.5795 44.042 23.8735 46.83 23.8735 51.709V62H23.2175V40.27H23.8735V47.732C24.8985 44.903 26.4975 43.304 28.7935 41.951V40.27H29.4495V41.582C31.0895 40.762 32.8525 40.352 34.5745 40.352V41.008C32.8525 41.008 31.0485 41.459 29.4495 42.32V49.044C30.3925 47.199 32.3605 45.928 34.5745 45.928V46.584C31.7045 46.584 29.4495 48.88 29.4495 51.709V62H28.7935ZM42.6069 62V42.689C40.3929 44.042 37.6869 46.83 37.6869 51.709V62H37.0309V40.27H37.6869V47.732C38.7119 44.903 40.3109 43.304 42.6069 41.951V40.27H43.2629V41.582C44.9029 40.762 46.6659 40.352 48.3879 40.352V41.008C46.6659 41.008 44.8619 41.459 43.2629 42.32V49.044C44.2059 47.199 46.1739 45.928 48.3879 45.928V46.584C45.5179 46.584 43.2629 48.88 43.2629 51.709V62H42.6069ZM66.312 42.115V60.155C69.059 58.474 71.232 55.071 71.232 51.135C71.232 47.199 69.059 43.796 66.312 42.115ZM60.531 39.778C62.376 39.778 64.098 40.229 65.656 41.008V40.27H66.312V41.377C68.608 42.648 70.371 44.944 71.232 47.322V40.27H71.888V62H71.232V54.907C70.412 57.244 68.608 59.663 66.312 60.934V62H65.656V61.262C64.098 62.041 62.376 62.492 60.531 62.492C54.258 62.492 49.174 57.408 49.174 51.135C49.174 44.862 54.258 39.778 60.531 39.778ZM60.531 61.836C62.376 61.836 64.139 61.385 65.656 60.565V53.841C64.672 55.645 62.745 56.916 60.531 56.916C57.333 56.916 54.75 54.333 54.75 51.135C54.75 47.937 57.333 45.354 60.531 45.354C62.745 45.354 64.672 46.625 65.656 48.47V41.746C64.139 40.926 62.376 40.434 60.531 40.434C54.627 40.434 49.83 45.231 49.83 51.135C49.83 57.039 54.627 61.836 60.531 61.836ZM60.531 56.26C63.401 56.26 65.656 53.964 65.656 51.135C65.656 48.306 63.401 46.01 60.531 46.01C57.702 46.01 55.406 48.306 55.406 51.135C55.406 53.964 57.702 56.26 60.531 56.26ZM98.086 40.27L83.9 71.02H83.203L85.745 65.526L82.875 59.376L77.504 71.02H76.807L82.547 58.597L73.978 40.27H74.675L82.875 57.859L85.704 51.75L80.374 40.27H81.071L86.073 50.971L90.993 40.27H91.69L86.401 51.709L89.271 57.859L97.389 40.27H98.086ZM86.114 64.747L88.943 58.638L86.073 52.488L83.244 58.638L86.114 64.747ZM98.0274 46.953C98.0274 42.976 101.225 39.778 105.202 39.778C108.154 39.778 110.696 41.582 111.803 44.124L111.188 44.411C110.204 42.074 107.867 40.434 105.202 40.434C101.594 40.434 98.6834 43.345 98.6834 46.953C98.6834 50.028 100.774 52.57 103.644 53.308L105.448 53.759C106.145 53.923 106.637 54.579 106.637 55.317C106.637 56.219 105.94 56.916 105.038 56.916C104.341 56.916 103.767 56.506 103.521 55.85L104.136 55.604C104.259 55.973 104.587 56.26 105.038 56.26C105.571 56.26 105.981 55.85 105.981 55.317C105.981 54.866 105.735 54.497 105.284 54.374L103.439 53.923C100.323 53.144 98.0274 50.315 98.0274 46.953ZM98.4374 58.187L99.0524 57.9C100.036 60.237 102.332 61.836 105.038 61.836C108.646 61.836 111.557 58.925 111.557 55.317C111.557 52.242 109.466 49.7 106.596 48.962L104.792 48.511C104.054 48.306 103.603 47.691 103.603 46.953C103.603 46.051 104.3 45.354 105.202 45.354C105.899 45.354 106.473 45.805 106.678 46.42L106.104 46.666C105.981 46.297 105.612 46.01 105.202 46.01C104.669 46.01 104.259 46.42 104.259 46.953C104.259 47.404 104.505 47.773 104.956 47.896L106.801 48.347C109.958 49.126 112.213 51.955 112.213 55.317C112.213 59.294 109.015 62.492 105.038 62.492C102.086 62.492 99.5444 60.729 98.4374 58.187ZM138.364 33.3H139.02L150.623 62H149.967L148.286 57.818H142.874L144.555 62H143.899L142.218 57.818H129.057L127.376 62H126.72L128.401 57.818H122.989L121.308 62H120.652L132.296 33.3H132.952L135.658 40.024L138.364 33.3ZM131.64 51.586H139.676L135.658 41.664L131.64 51.586ZM132.624 34.12L125.572 51.586H130.984L135.33 40.844L132.624 34.12ZM135.986 40.844L140.332 51.586H145.744L138.692 34.12L135.986 40.844ZM129.344 57.162H141.931L139.922 52.242H131.353L129.344 57.162ZM140.578 52.242L142.587 57.162H147.999L146.031 52.242H140.578ZM128.688 57.162L130.697 52.242H125.285L123.276 57.162H128.688ZM157.799 62V42.689C155.585 44.042 152.879 46.83 152.879 51.709V62H152.223V40.27H152.879V47.732C153.904 44.903 155.503 43.304 157.799 41.951V40.27H158.455V41.582C160.095 40.762 161.858 40.352 163.58 40.352V41.008C161.858 41.008 160.054 41.459 158.455 42.32V49.044C159.398 47.199 161.366 45.928 163.58 45.928V46.584C160.71 46.584 158.455 48.88 158.455 51.709V62H157.799ZM171.613 62V42.689C169.399 44.042 166.693 46.83 166.693 51.709V62H166.037V40.27H166.693V47.732C167.718 44.903 169.317 43.304 171.613 41.951V40.27H172.269V41.582C173.909 40.762 175.672 40.352 177.394 40.352V41.008C175.672 41.008 173.868 41.459 172.269 42.32V49.044C173.212 47.199 175.18 45.928 177.394 45.928V46.584C174.524 46.584 172.269 48.88 172.269 51.709V62H171.613ZM195.318 42.115V60.155C198.065 58.474 200.238 55.071 200.238 51.135C200.238 47.199 198.065 43.796 195.318 42.115ZM189.537 39.778C191.382 39.778 193.104 40.229 194.662 41.008V40.27H195.318V41.377C197.614 42.648 199.377 44.944 200.238 47.322V40.27H200.894V62H200.238V54.907C199.418 57.244 197.614 59.663 195.318 60.934V62H194.662V61.262C193.104 62.041 191.382 62.492 189.537 62.492C183.264 62.492 178.18 57.408 178.18 51.135C178.18 44.862 183.264 39.778 189.537 39.778ZM189.537 61.836C191.382 61.836 193.145 61.385 194.662 60.565V53.841C193.678 55.645 191.751 56.916 189.537 56.916C186.339 56.916 183.756 54.333 183.756 51.135C183.756 47.937 186.339 45.354 189.537 45.354C191.751 45.354 193.678 46.625 194.662 48.47V41.746C193.145 40.926 191.382 40.434 189.537 40.434C183.633 40.434 178.836 45.231 178.836 51.135C178.836 57.039 183.633 61.836 189.537 61.836ZM189.537 56.26C192.407 56.26 194.662 53.964 194.662 51.135C194.662 48.306 192.407 46.01 189.537 46.01C186.708 46.01 184.412 48.306 184.412 51.135C184.412 53.964 186.708 56.26 189.537 56.26ZM227.092 40.27L212.906 71.02H212.209L214.751 65.526L211.881 59.376L206.51 71.02H205.813L211.553 58.597L202.984 40.27H203.681L211.881 57.859L214.71 51.75L209.38 40.27H210.077L215.079 50.971L219.999 40.27H220.696L215.407 51.709L218.277 57.859L226.395 40.27H227.092ZM215.12 64.747L217.949 58.638L215.079 52.488L212.25 58.638L215.12 64.747ZM227.033 46.953C227.033 42.976 230.231 39.778 234.208 39.778C237.16 39.778 239.702 41.582 240.809 44.124L240.194 44.411C239.21 42.074 236.873 40.434 234.208 40.434C230.6 40.434 227.689 43.345 227.689 46.953C227.689 50.028 229.78 52.57 232.65 53.308L234.454 53.759C235.151 53.923 235.643 54.579 235.643 55.317C235.643 56.219 234.946 56.916 234.044 56.916C233.347 56.916 232.773 56.506 232.527 55.85L233.142 55.604C233.265 55.973 233.593 56.26 234.044 56.26C234.577 56.26 234.987 55.85 234.987 55.317C234.987 54.866 234.741 54.497 234.29 54.374L232.445 53.923C229.329 53.144 227.033 50.315 227.033 46.953ZM227.443 58.187L228.058 57.9C229.042 60.237 231.338 61.836 234.044 61.836C237.652 61.836 240.563 58.925 240.563 55.317C240.563 52.242 238.472 49.7 235.602 48.962L233.798 48.511C233.06 48.306 232.609 47.691 232.609 46.953C232.609 46.051 233.306 45.354 234.208 45.354C234.905 45.354 235.479 45.805 235.684 46.42L235.11 46.666C234.987 46.297 234.618 46.01 234.208 46.01C233.675 46.01 233.265 46.42 233.265 46.953C233.265 47.404 233.511 47.773 233.962 47.896L235.807 48.347C238.964 49.126 241.219 51.955 241.219 55.317C241.219 59.294 238.021 62.492 234.044 62.492C231.092 62.492 228.55 60.729 227.443 58.187ZM267.37 33.3H268.026L279.629 62H278.973L277.292 57.818H271.88L273.561 62H272.905L271.224 57.818H258.063L256.382 62H255.726L257.407 57.818H251.995L250.314 62H249.658L261.302 33.3H261.958L264.664 40.024L267.37 33.3ZM260.646 51.586H268.682L264.664 41.664L260.646 51.586ZM261.63 34.12L254.578 51.586H259.99L264.336 40.844L261.63 34.12ZM264.992 40.844L269.338 51.586H274.75L267.698 34.12L264.992 40.844ZM258.35 57.162H270.937L268.928 52.242H260.359L258.35 57.162ZM269.584 52.242L271.593 57.162H277.005L275.037 52.242H269.584ZM257.694 57.162L259.703 52.242H254.291L252.282 57.162H257.694ZM286.805 62V42.689C284.591 44.042 281.885 46.83 281.885 51.709V62H281.229V40.27H281.885V47.732C282.91 44.903 284.509 43.304 286.805 41.951V40.27H287.461V41.582C289.101 40.762 290.864 40.352 292.586 40.352V41.008C290.864 41.008 289.06 41.459 287.461 42.32V49.044C288.404 47.199 290.372 45.928 292.586 45.928V46.584C289.716 46.584 287.461 48.88 287.461 51.709V62H286.805ZM300.619 62V42.689C298.405 44.042 295.699 46.83 295.699 51.709V62H295.043V40.27H295.699V47.732C296.724 44.903 298.323 43.304 300.619 41.951V40.27H301.275V41.582C302.915 40.762 304.678 40.352 306.4 40.352V41.008C304.678 41.008 302.874 41.459 301.275 42.32V49.044C302.218 47.199 304.186 45.928 306.4 45.928V46.584C303.53 46.584 301.275 48.88 301.275 51.709V62H300.619ZM324.324 42.115V60.155C327.071 58.474 329.244 55.071 329.244 51.135C329.244 47.199 327.071 43.796 324.324 42.115ZM318.543 39.778C320.388 39.778 322.11 40.229 323.668 41.008V40.27H324.324V41.377C326.62 42.648 328.383 44.944 329.244 47.322V40.27H329.9V62H329.244V54.907C328.424 57.244 326.62 59.663 324.324 60.934V62H323.668V61.262C322.11 62.041 320.388 62.492 318.543 62.492C312.27 62.492 307.186 57.408 307.186 51.135C307.186 44.862 312.27 39.778 318.543 39.778ZM318.543 61.836C320.388 61.836 322.151 61.385 323.668 60.565V53.841C322.684 55.645 320.757 56.916 318.543 56.916C315.345 56.916 312.762 54.333 312.762 51.135C312.762 47.937 315.345 45.354 318.543 45.354C320.757 45.354 322.684 46.625 323.668 48.47V41.746C322.151 40.926 320.388 40.434 318.543 40.434C312.639 40.434 307.842 45.231 307.842 51.135C307.842 57.039 312.639 61.836 318.543 61.836ZM318.543 56.26C321.413 56.26 323.668 53.964 323.668 51.135C323.668 48.306 321.413 46.01 318.543 46.01C315.714 46.01 313.418 48.306 313.418 51.135C313.418 53.964 315.714 56.26 318.543 56.26ZM356.098 40.27L341.912 71.02H341.215L343.757 65.526L340.887 59.376L335.516 71.02H334.819L340.559 58.597L331.99 40.27H332.687L340.887 57.859L343.716 51.75L338.386 40.27H339.083L344.085 50.971L349.005 40.27H349.702L344.413 51.709L347.283 57.859L355.401 40.27H356.098ZM344.126 64.747L346.955 58.638L344.085 52.488L341.256 58.638L344.126 64.747ZM356.039 46.953C356.039 42.976 359.237 39.778 363.214 39.778C366.166 39.778 368.708 41.582 369.815 44.124L369.2 44.411C368.216 42.074 365.879 40.434 363.214 40.434C359.606 40.434 356.695 43.345 356.695 46.953C356.695 50.028 358.786 52.57 361.656 53.308L363.46 53.759C364.157 53.923 364.649 54.579 364.649 55.317C364.649 56.219 363.952 56.916 363.05 56.916C362.353 56.916 361.779 56.506 361.533 55.85L362.148 55.604C362.271 55.973 362.599 56.26 363.05 56.26C363.583 56.26 363.993 55.85 363.993 55.317C363.993 54.866 363.747 54.497 363.296 54.374L361.451 53.923C358.335 53.144 356.039 50.315 356.039 46.953ZM356.449 58.187L357.064 57.9C358.048 60.237 360.344 61.836 363.05 61.836C366.658 61.836 369.569 58.925 369.569 55.317C369.569 52.242 367.478 49.7 364.608 48.962L362.804 48.511C362.066 48.306 361.615 47.691 361.615 46.953C361.615 46.051 362.312 45.354 363.214 45.354C363.911 45.354 364.485 45.805 364.69 46.42L364.116 46.666C363.993 46.297 363.624 46.01 363.214 46.01C362.681 46.01 362.271 46.42 362.271 46.953C362.271 47.404 362.517 47.773 362.968 47.896L364.813 48.347C367.97 49.126 370.225 51.955 370.225 55.317C370.225 59.294 367.027 62.492 363.05 62.492C360.098 62.492 357.556 60.729 356.449 58.187ZM396.376 33.3H397.032L408.635 62H407.979L406.298 57.818H400.886L402.567 62H401.911L400.23 57.818H387.069L385.388 62H384.732L386.413 57.818H381.001L379.32 62H378.664L390.308 33.3H390.964L393.67 40.024L396.376 33.3ZM389.652 51.586H397.688L393.67 41.664L389.652 51.586ZM390.636 34.12L383.584 51.586H388.996L393.342 40.844L390.636 34.12ZM393.998 40.844L398.344 51.586H403.756L396.704 34.12L393.998 40.844ZM387.356 57.162H399.943L397.934 52.242H389.365L387.356 57.162ZM398.59 52.242L400.599 57.162H406.011L404.043 52.242H398.59ZM386.7 57.162L388.709 52.242H383.297L381.288 57.162H386.7ZM415.811 62V42.689C413.597 44.042 410.891 46.83 410.891 51.709V62H410.235V40.27H410.891V47.732C411.916 44.903 413.515 43.304 415.811 41.951V40.27H416.467V41.582C418.107 40.762 419.87 40.352 421.592 40.352V41.008C419.87 41.008 418.066 41.459 416.467 42.32V49.044C417.41 47.199 419.378 45.928 421.592 45.928V46.584C418.722 46.584 416.467 48.88 416.467 51.709V62H415.811ZM429.625 62V42.689C427.411 44.042 424.705 46.83 424.705 51.709V62H424.049V40.27H424.705V47.732C425.73 44.903 427.329 43.304 429.625 41.951V40.27H430.281V41.582C431.921 40.762 433.684 40.352 435.406 40.352V41.008C433.684 41.008 431.88 41.459 430.281 42.32V49.044C431.224 47.199 433.192 45.928 435.406 45.928V46.584C432.536 46.584 430.281 48.88 430.281 51.709V62H429.625ZM453.33 42.115V60.155C456.077 58.474 458.25 55.071 458.25 51.135C458.25 47.199 456.077 43.796 453.33 42.115ZM447.549 39.778C449.394 39.778 451.116 40.229 452.674 41.008V40.27H453.33V41.377C455.626 42.648 457.389 44.944 458.25 47.322V40.27H458.906V62H458.25V54.907C457.43 57.244 455.626 59.663 453.33 60.934V62H452.674V61.262C451.116 62.041 449.394 62.492 447.549 62.492C441.276 62.492 436.192 57.408 436.192 51.135C436.192 44.862 441.276 39.778 447.549 39.778ZM447.549 61.836C449.394 61.836 451.157 61.385 452.674 60.565V53.841C451.69 55.645 449.763 56.916 447.549 56.916C444.351 56.916 441.768 54.333 441.768 51.135C441.768 47.937 444.351 45.354 447.549 45.354C449.763 45.354 451.69 46.625 452.674 48.47V41.746C451.157 40.926 449.394 40.434 447.549 40.434C441.645 40.434 436.848 45.231 436.848 51.135C436.848 57.039 441.645 61.836 447.549 61.836ZM447.549 56.26C450.419 56.26 452.674 53.964 452.674 51.135C452.674 48.306 450.419 46.01 447.549 46.01C444.72 46.01 442.424 48.306 442.424 51.135C442.424 53.964 444.72 56.26 447.549 56.26ZM485.104 40.27L470.918 71.02H470.221L472.763 65.526L469.893 59.376L464.522 71.02H463.825L469.565 58.597L460.996 40.27H461.693L469.893 57.859L472.722 51.75L467.392 40.27H468.089L473.091 50.971L478.011 40.27H478.708L473.419 51.709L476.289 57.859L484.407 40.27H485.104ZM473.132 64.747L475.961 58.638L473.091 52.488L470.262 58.638L473.132 64.747ZM485.045 46.953C485.045 42.976 488.243 39.778 492.22 39.778C495.172 39.778 497.714 41.582 498.821 44.124L498.206 44.411C497.222 42.074 494.885 40.434 492.22 40.434C488.612 40.434 485.701 43.345 485.701 46.953C485.701 50.028 487.792 52.57 490.662 53.308L492.466 53.759C493.163 53.923 493.655 54.579 493.655 55.317C493.655 56.219 492.958 56.916 492.056 56.916C491.359 56.916 490.785 56.506 490.539 55.85L491.154 55.604C491.277 55.973 491.605 56.26 492.056 56.26C492.589 56.26 492.999 55.85 492.999 55.317C492.999 54.866 492.753 54.497 492.302 54.374L490.457 53.923C487.341 53.144 485.045 50.315 485.045 46.953ZM485.455 58.187L486.07 57.9C487.054 60.237 489.35 61.836 492.056 61.836C495.664 61.836 498.575 58.925 498.575 55.317C498.575 52.242 496.484 49.7 493.614 48.962L491.81 48.511C491.072 48.306 490.621 47.691 490.621 46.953C490.621 46.051 491.318 45.354 492.22 45.354C492.917 45.354 493.491 45.805 493.696 46.42L493.122 46.666C492.999 46.297 492.63 46.01 492.22 46.01C491.687 46.01 491.277 46.42 491.277 46.953C491.277 47.404 491.523 47.773 491.974 47.896L493.819 48.347C496.976 49.126 499.231 51.955 499.231 55.317C499.231 59.294 496.033 62.492 492.056 62.492C489.104 62.492 486.562 60.729 485.455 58.187ZM525.382 33.3H526.038L537.641 62H536.985L535.304 57.818H529.892L531.573 62H530.917L529.236 57.818H516.075L514.394 62H513.738L515.419 57.818H510.007L508.326 62H507.67L519.314 33.3H519.97L522.676 40.024L525.382 33.3ZM518.658 51.586H526.694L522.676 41.664L518.658 51.586ZM519.642 34.12L512.59 51.586H518.002L522.348 40.844L519.642 34.12ZM523.004 40.844L527.35 51.586H532.762L525.71 34.12L523.004 40.844ZM516.362 57.162H528.949L526.94 52.242H518.371L516.362 57.162ZM527.596 52.242L529.605 57.162H535.017L533.049 52.242H527.596ZM515.706 57.162L517.715 52.242H512.303L510.294 57.162H515.706ZM544.817 62V42.689C542.603 44.042 539.897 46.83 539.897 51.709V62H539.241V40.27H539.897V47.732C540.922 44.903 542.521 43.304 544.817 41.951V40.27H545.473V41.582C547.113 40.762 548.876 40.352 550.598 40.352V41.008C548.876 41.008 547.072 41.459 545.473 42.32V49.044C546.416 47.199 548.384 45.928 550.598 45.928V46.584C547.728 46.584 545.473 48.88 545.473 51.709V62H544.817ZM558.63 62V42.689C556.416 44.042 553.71 46.83 553.71 51.709V62H553.054V40.27H553.71V47.732C554.735 44.903 556.334 43.304 558.63 41.951V40.27H559.286V41.582C560.926 40.762 562.689 40.352 564.411 40.352V41.008C562.689 41.008 560.885 41.459 559.286 42.32V49.044C560.229 47.199 562.197 45.928 564.411 45.928V46.584C561.541 46.584 559.286 48.88 559.286 51.709V62H558.63ZM582.335 42.115V60.155C585.082 58.474 587.255 55.071 587.255 51.135C587.255 47.199 585.082 43.796 582.335 42.115ZM576.554 39.778C578.399 39.778 580.121 40.229 581.679 41.008V40.27H582.335V41.377C584.631 42.648 586.394 44.944 587.255 47.322V40.27H587.911V62H587.255V54.907C586.435 57.244 584.631 59.663 582.335 60.934V62H581.679V61.262C580.121 62.041 578.399 62.492 576.554 62.492C570.281 62.492 565.197 57.408 565.197 51.135C565.197 44.862 570.281 39.778 576.554 39.778ZM576.554 61.836C578.399 61.836 580.162 61.385 581.679 60.565V53.841C580.695 55.645 578.768 56.916 576.554 56.916C573.356 56.916 570.773 54.333 570.773 51.135C570.773 47.937 573.356 45.354 576.554 45.354C578.768 45.354 580.695 46.625 581.679 48.47V41.746C580.162 40.926 578.399 40.434 576.554 40.434C570.65 40.434 565.853 45.231 565.853 51.135C565.853 57.039 570.65 61.836 576.554 61.836ZM576.554 56.26C579.424 56.26 581.679 53.964 581.679 51.135C581.679 48.306 579.424 46.01 576.554 46.01C573.725 46.01 571.429 48.306 571.429 51.135C571.429 53.964 573.725 56.26 576.554 56.26ZM614.109 40.27L599.923 71.02H599.226L601.768 65.526L598.898 59.376L593.527 71.02H592.83L598.57 58.597L590.001 40.27H590.698L598.898 57.859L601.727 51.75L596.397 40.27H597.094L602.096 50.971L607.016 40.27H607.713L602.424 51.709L605.294 57.859L613.412 40.27H614.109ZM602.137 64.747L604.966 58.638L602.096 52.488L599.267 58.638L602.137 64.747ZM614.051 46.953C614.051 42.976 617.249 39.778 621.226 39.778C624.178 39.778 626.72 41.582 627.827 44.124L627.212 44.411C626.228 42.074 623.891 40.434 621.226 40.434C617.618 40.434 614.707 43.345 614.707 46.953C614.707 50.028 616.798 52.57 619.668 53.308L621.472 53.759C622.169 53.923 622.661 54.579 622.661 55.317C622.661 56.219 621.964 56.916 621.062 56.916C620.365 56.916 619.791 56.506 619.545 55.85L620.16 55.604C620.283 55.973 620.611 56.26 621.062 56.26C621.595 56.26 622.005 55.85 622.005 55.317C622.005 54.866 621.759 54.497 621.308 54.374L619.463 53.923C616.347 53.144 614.051 50.315 614.051 46.953ZM614.461 58.187L615.076 57.9C616.06 60.237 618.356 61.836 621.062 61.836C624.67 61.836 627.581 58.925 627.581 55.317C627.581 52.242 625.49 49.7 622.62 48.962L620.816 48.511C620.078 48.306 619.627 47.691 619.627 46.953C619.627 46.051 620.324 45.354 621.226 45.354C621.923 45.354 622.497 45.805 622.702 46.42L622.128 46.666C622.005 46.297 621.636 46.01 621.226 46.01C620.693 46.01 620.283 46.42 620.283 46.953C620.283 47.404 620.529 47.773 620.98 47.896L622.825 48.347C625.982 49.126 628.237 51.955 628.237 55.317C628.237 59.294 625.039 62.492 621.062 62.492C618.11 62.492 615.568 60.729 614.461 58.187ZM654.387 33.3H655.043L666.646 62H665.99L664.309 57.818H658.897L660.578 62H659.922L658.241 57.818H645.08L643.399 62H642.743L644.424 57.818H639.012L637.331 62H636.675L648.319 33.3H648.975L651.681 40.024L654.387 33.3ZM647.663 51.586H655.699L651.681 41.664L647.663 51.586ZM648.647 34.12L641.595 51.586H647.007L651.353 40.844L648.647 34.12ZM652.009 40.844L656.355 51.586H661.767L654.715 34.12L652.009 40.844ZM645.367 57.162H657.954L655.945 52.242H647.376L645.367 57.162ZM656.601 52.242L658.61 57.162H664.022L662.054 52.242H656.601ZM644.711 57.162L646.72 52.242H641.308L639.299 57.162H644.711ZM673.823 62V42.689C671.609 44.042 668.903 46.83 668.903 51.709V62H668.247V40.27H668.903V47.732C669.928 44.903 671.527 43.304 673.823 41.951V40.27H674.479V41.582C676.119 40.762 677.882 40.352 679.604 40.352V41.008C677.882 41.008 676.078 41.459 674.479 42.32V49.044C675.422 47.199 677.39 45.928 679.604 45.928V46.584C676.734 46.584 674.479 48.88 674.479 51.709V62H673.823ZM687.636 62V42.689C685.422 44.042 682.716 46.83 682.716 51.709V62H682.06V40.27H682.716V47.732C683.741 44.903 685.34 43.304 687.636 41.951V40.27H688.292V41.582C689.932 40.762 691.695 40.352 693.417 40.352V41.008C691.695 41.008 689.891 41.459 688.292 42.32V49.044C689.235 47.199 691.203 45.928 693.417 45.928V46.584C690.547 46.584 688.292 48.88 688.292 51.709V62H687.636ZM711.341 42.115V60.155C714.088 58.474 716.261 55.071 716.261 51.135C716.261 47.199 714.088 43.796 711.341 42.115ZM705.56 39.778C707.405 39.778 709.127 40.229 710.685 41.008V40.27H711.341V41.377C713.637 42.648 715.4 44.944 716.261 47.322V40.27H716.917V62H716.261V54.907C715.441 57.244 713.637 59.663 711.341 60.934V62H710.685V61.262C709.127 62.041 707.405 62.492 705.56 62.492C699.287 62.492 694.203 57.408 694.203 51.135C694.203 44.862 699.287 39.778 705.56 39.778ZM705.56 61.836C707.405 61.836 709.168 61.385 710.685 60.565V53.841C709.701 55.645 707.774 56.916 705.56 56.916C702.362 56.916 699.779 54.333 699.779 51.135C699.779 47.937 702.362 45.354 705.56 45.354C707.774 45.354 709.701 46.625 710.685 48.47V41.746C709.168 40.926 707.405 40.434 705.56 40.434C699.656 40.434 694.859 45.231 694.859 51.135C694.859 57.039 699.656 61.836 705.56 61.836ZM705.56 56.26C708.43 56.26 710.685 53.964 710.685 51.135C710.685 48.306 708.43 46.01 705.56 46.01C702.731 46.01 700.435 48.306 700.435 51.135C700.435 53.964 702.731 56.26 705.56 56.26ZM743.115 40.27L728.929 71.02H728.232L730.774 65.526L727.904 59.376L722.533 71.02H721.836L727.576 58.597L719.007 40.27H719.704L727.904 57.859L730.733 51.75L725.403 40.27H726.1L731.102 50.971L736.022 40.27H736.719L731.43 51.709L734.3 57.859L742.418 40.27H743.115ZM731.143 64.747L733.972 58.638L731.102 52.488L728.273 58.638L731.143 64.747ZM743.057 46.953C743.057 42.976 746.255 39.778 750.232 39.778C753.184 39.778 755.726 41.582 756.833 44.124L756.218 44.411C755.234 42.074 752.897 40.434 750.232 40.434C746.624 40.434 743.713 43.345 743.713 46.953C743.713 50.028 745.804 52.57 748.674 53.308L750.478 53.759C751.175 53.923 751.667 54.579 751.667 55.317C751.667 56.219 750.97 56.916 750.068 56.916C749.371 56.916 748.797 56.506 748.551 55.85L749.166 55.604C749.289 55.973 749.617 56.26 750.068 56.26C750.601 56.26 751.011 55.85 751.011 55.317C751.011 54.866 750.765 54.497 750.314 54.374L748.469 53.923C745.353 53.144 743.057 50.315 743.057 46.953ZM743.467 58.187L744.082 57.9C745.066 60.237 747.362 61.836 750.068 61.836C753.676 61.836 756.587 58.925 756.587 55.317C756.587 52.242 754.496 49.7 751.626 48.962L749.822 48.511C749.084 48.306 748.633 47.691 748.633 46.953C748.633 46.051 749.33 45.354 750.232 45.354C750.929 45.354 751.503 45.805 751.708 46.42L751.134 46.666C751.011 46.297 750.642 46.01 750.232 46.01C749.699 46.01 749.289 46.42 749.289 46.953C749.289 47.404 749.535 47.773 749.986 47.896L751.831 48.347C754.988 49.126 757.243 51.955 757.243 55.317C757.243 59.294 754.045 62.492 750.068 62.492C747.116 62.492 744.574 60.729 743.467 58.187ZM783.393 33.3H784.049L795.652 62H794.996L793.315 57.818H787.903L789.584 62H788.928L787.247 57.818H774.086L772.405 62H771.749L773.43 57.818H768.018L766.337 62H765.681L777.325 33.3H777.981L780.687 40.024L783.393 33.3ZM776.669 51.586H784.705L780.687 41.664L776.669 51.586ZM777.653 34.12L770.601 51.586H776.013L780.359 40.844L777.653 34.12ZM781.015 40.844L785.361 51.586H790.773L783.721 34.12L781.015 40.844ZM774.373 57.162H786.96L784.951 52.242H776.382L774.373 57.162ZM785.607 52.242L787.616 57.162H793.028L791.06 52.242H785.607ZM773.717 57.162L775.726 52.242H770.314L768.305 57.162H773.717ZM802.829 62V42.689C800.615 44.042 797.909 46.83 797.909 51.709V62H797.253V40.27H797.909V47.732C798.934 44.903 800.533 43.304 802.829 41.951V40.27H803.485V41.582C805.125 40.762 806.888 40.352 808.61 40.352V41.008C806.888 41.008 805.084 41.459 803.485 42.32V49.044C804.428 47.199 806.396 45.928 808.61 45.928V46.584C805.74 46.584 803.485 48.88 803.485 51.709V62H802.829ZM816.642 62V42.689C814.428 44.042 811.722 46.83 811.722 51.709V62H811.066V40.27H811.722V47.732C812.747 44.903 814.346 43.304 816.642 41.951V40.27H817.298V41.582C818.938 40.762 820.701 40.352 822.423 40.352V41.008C820.701 41.008 818.897 41.459 817.298 42.32V49.044C818.241 47.199 820.209 45.928 822.423 45.928V46.584C819.553 46.584 817.298 48.88 817.298 51.709V62H816.642ZM840.347 42.115V60.155C843.094 58.474 845.267 55.071 845.267 51.135C845.267 47.199 843.094 43.796 840.347 42.115ZM834.566 39.778C836.411 39.778 838.133 40.229 839.691 41.008V40.27H840.347V41.377C842.643 42.648 844.406 44.944 845.267 47.322V40.27H845.923V62H845.267V54.907C844.447 57.244 842.643 59.663 840.347 60.934V62H839.691V61.262C838.133 62.041 836.411 62.492 834.566 62.492C828.293 62.492 823.209 57.408 823.209 51.135C823.209 44.862 828.293 39.778 834.566 39.778ZM834.566 61.836C836.411 61.836 838.174 61.385 839.691 60.565V53.841C838.707 55.645 836.78 56.916 834.566 56.916C831.368 56.916 828.785 54.333 828.785 51.135C828.785 47.937 831.368 45.354 834.566 45.354C836.78 45.354 838.707 46.625 839.691 48.47V41.746C838.174 40.926 836.411 40.434 834.566 40.434C828.662 40.434 823.865 45.231 823.865 51.135C823.865 57.039 828.662 61.836 834.566 61.836ZM834.566 56.26C837.436 56.26 839.691 53.964 839.691 51.135C839.691 48.306 837.436 46.01 834.566 46.01C831.737 46.01 829.441 48.306 829.441 51.135C829.441 53.964 831.737 56.26 834.566 56.26ZM872.121 40.27L857.935 71.02H857.238L859.78 65.526L856.91 59.376L851.539 71.02H850.842L856.582 58.597L848.013 40.27H848.71L856.91 57.859L859.739 51.75L854.409 40.27H855.106L860.108 50.971L865.028 40.27H865.725L860.436 51.709L863.306 57.859L871.424 40.27H872.121ZM860.149 64.747L862.978 58.638L860.108 52.488L857.279 58.638L860.149 64.747ZM872.063 46.953C872.063 42.976 875.261 39.778 879.238 39.778C882.19 39.778 884.732 41.582 885.839 44.124L885.224 44.411C884.24 42.074 881.903 40.434 879.238 40.434C875.63 40.434 872.719 43.345 872.719 46.953C872.719 50.028 874.81 52.57 877.68 53.308L879.484 53.759C880.181 53.923 880.673 54.579 880.673 55.317C880.673 56.219 879.976 56.916 879.074 56.916C878.377 56.916 877.803 56.506 877.557 55.85L878.172 55.604C878.295 55.973 878.623 56.26 879.074 56.26C879.607 56.26 880.017 55.85 880.017 55.317C880.017 54.866 879.771 54.497 879.32 54.374L877.475 53.923C874.359 53.144 872.063 50.315 872.063 46.953ZM872.473 58.187L873.088 57.9C874.072 60.237 876.368 61.836 879.074 61.836C882.682 61.836 885.593 58.925 885.593 55.317C885.593 52.242 883.502 49.7 880.632 48.962L878.828 48.511C878.09 48.306 877.639 47.691 877.639 46.953C877.639 46.051 878.336 45.354 879.238 45.354C879.935 45.354 880.509 45.805 880.714 46.42L880.14 46.666C880.017 46.297 879.648 46.01 879.238 46.01C878.705 46.01 878.295 46.42 878.295 46.953C878.295 47.404 878.541 47.773 878.992 47.896L880.837 48.347C883.994 49.126 886.249 51.955 886.249 55.317C886.249 59.294 883.051 62.492 879.074 62.492C876.122 62.492 873.58 60.729 872.473 58.187ZM912.399 33.3H913.055L924.658 62H924.002L922.321 57.818H916.909L918.59 62H917.934L916.253 57.818H903.092L901.411 62H900.755L902.436 57.818H897.024L895.343 62H894.687L906.331 33.3H906.987L909.693 40.024L912.399 33.3ZM905.675 51.586H913.711L909.693 41.664L905.675 51.586ZM906.659 34.12L899.607 51.586H905.019L909.365 40.844L906.659 34.12ZM910.021 40.844L914.367 51.586H919.779L912.727 34.12L910.021 40.844ZM903.379 57.162H915.966L913.957 52.242H905.388L903.379 57.162ZM914.613 52.242L916.622 57.162H922.034L920.066 52.242H914.613ZM902.723 57.162L904.732 52.242H899.32L897.311 57.162H902.723ZM931.834 62V42.689C929.62 44.042 926.914 46.83 926.914 51.709V62H926.258V40.27H926.914V47.732C927.939 44.903 929.538 43.304 931.834 41.951V40.27H932.49V41.582C934.13 40.762 935.893 40.352 937.615 40.352V41.008C935.893 41.008 934.089 41.459 932.49 42.32V49.044C933.433 47.199 935.401 45.928 937.615 45.928V46.584C934.745 46.584 932.49 48.88 932.49 51.709V62H931.834ZM945.648 62V42.689C943.434 44.042 940.728 46.83 940.728 51.709V62H940.072V40.27H940.728V47.732C941.753 44.903 943.352 43.304 945.648 41.951V40.27H946.304V41.582C947.944 40.762 949.707 40.352 951.429 40.352V41.008C949.707 41.008 947.903 41.459 946.304 42.32V49.044C947.247 47.199 949.215 45.928 951.429 45.928V46.584C948.559 46.584 946.304 48.88 946.304 51.709V62H945.648ZM969.353 42.115V60.155C972.1 58.474 974.273 55.071 974.273 51.135C974.273 47.199 972.1 43.796 969.353 42.115ZM963.572 39.778C965.417 39.778 967.139 40.229 968.697 41.008V40.27H969.353V41.377C971.649 42.648 973.412 44.944 974.273 47.322V40.27H974.929V62H974.273V54.907C973.453 57.244 971.649 59.663 969.353 60.934V62H968.697V61.262C967.139 62.041 965.417 62.492 963.572 62.492C957.299 62.492 952.215 57.408 952.215 51.135C952.215 44.862 957.299 39.778 963.572 39.778ZM963.572 61.836C965.417 61.836 967.18 61.385 968.697 60.565V53.841C967.713 55.645 965.786 56.916 963.572 56.916C960.374 56.916 957.791 54.333 957.791 51.135C957.791 47.937 960.374 45.354 963.572 45.354C965.786 45.354 967.713 46.625 968.697 48.47V41.746C967.18 40.926 965.417 40.434 963.572 40.434C957.668 40.434 952.871 45.231 952.871 51.135C952.871 57.039 957.668 61.836 963.572 61.836ZM963.572 56.26C966.442 56.26 968.697 53.964 968.697 51.135C968.697 48.306 966.442 46.01 963.572 46.01C960.743 46.01 958.447 48.306 958.447 51.135C958.447 53.964 960.743 56.26 963.572 56.26ZM1001.13 40.27L986.941 71.02H986.244L988.786 65.526L985.916 59.376L980.545 71.02H979.848L985.588 58.597L977.019 40.27H977.716L985.916 57.859L988.745 51.75L983.415 40.27H984.112L989.114 50.971L994.034 40.27H994.731L989.442 51.709L992.312 57.859L1000.43 40.27H1001.13ZM989.155 64.747L991.984 58.638L989.114 52.488L986.285 58.638L989.155 64.747ZM1001.07 46.953C1001.07 42.976 1004.27 39.778 1008.24 39.778C1011.2 39.778 1013.74 41.582 1014.84 44.124L1014.23 44.411C1013.25 42.074 1010.91 40.434 1008.24 40.434C1004.64 40.434 1001.72 43.345 1001.72 46.953C1001.72 50.028 1003.82 52.57 1006.69 53.308L1008.49 53.759C1009.19 53.923 1009.68 54.579 1009.68 55.317C1009.68 56.219 1008.98 56.916 1008.08 56.916C1007.38 56.916 1006.81 56.506 1006.56 55.85L1007.18 55.604C1007.3 55.973 1007.63 56.26 1008.08 56.26C1008.61 56.26 1009.02 55.85 1009.02 55.317C1009.02 54.866 1008.78 54.497 1008.33 54.374L1006.48 53.923C1003.36 53.144 1001.07 50.315 1001.07 46.953ZM1001.48 58.187L1002.09 57.9C1003.08 60.237 1005.37 61.836 1008.08 61.836C1011.69 61.836 1014.6 58.925 1014.6 55.317C1014.6 52.242 1012.51 49.7 1009.64 48.962L1007.83 48.511C1007.1 48.306 1006.64 47.691 1006.64 46.953C1006.64 46.051 1007.34 45.354 1008.24 45.354C1008.94 45.354 1009.51 45.805 1009.72 46.42L1009.15 46.666C1009.02 46.297 1008.65 46.01 1008.24 46.01C1007.71 46.01 1007.3 46.42 1007.3 46.953C1007.3 47.404 1007.55 47.773 1008 47.896L1009.84 48.347C1013 49.126 1015.25 51.955 1015.25 55.317C1015.25 59.294 1012.06 62.492 1008.08 62.492C1005.13 62.492 1002.59 60.729 1001.48 58.187ZM1041.41 33.3H1042.06L1053.66 62H1053.01L1051.33 57.818H1045.92L1047.6 62H1046.94L1045.26 57.818H1032.1L1030.42 62H1029.76L1031.44 57.818H1026.03L1024.35 62H1023.69L1035.34 33.3H1035.99L1038.7 40.024L1041.41 33.3ZM1034.68 51.586H1042.72L1038.7 41.664L1034.68 51.586ZM1035.67 34.12L1028.61 51.586H1034.03L1038.37 40.844L1035.67 34.12ZM1039.03 40.844L1043.37 51.586H1048.79L1041.73 34.12L1039.03 40.844ZM1032.39 57.162H1044.97L1042.96 52.242H1034.39L1032.39 57.162ZM1043.62 52.242L1045.63 57.162H1051.04L1049.07 52.242H1043.62ZM1031.73 57.162L1033.74 52.242H1028.33L1026.32 57.162H1031.73ZM1060.84 62V42.689C1058.63 44.042 1055.92 46.83 1055.92 51.709V62H1055.26V40.27H1055.92V47.732C1056.95 44.903 1058.54 43.304 1060.84 41.951V40.27H1061.5V41.582C1063.14 40.762 1064.9 40.352 1066.62 40.352V41.008C1064.9 41.008 1063.1 41.459 1061.5 42.32V49.044C1062.44 47.199 1064.41 45.928 1066.62 45.928V46.584C1063.75 46.584 1061.5 48.88 1061.5 51.709V62H1060.84ZM1074.65 62V42.689C1072.44 44.042 1069.73 46.83 1069.73 51.709V62H1069.08V40.27H1069.73V47.732C1070.76 44.903 1072.36 43.304 1074.65 41.951V40.27H1075.31V41.582C1076.95 40.762 1078.71 40.352 1080.43 40.352V41.008C1078.71 41.008 1076.91 41.459 1075.31 42.32V49.044C1076.25 47.199 1078.22 45.928 1080.43 45.928V46.584C1077.56 46.584 1075.31 48.88 1075.31 51.709V62H1074.65ZM1098.36 42.115V60.155C1101.11 58.474 1103.28 55.071 1103.28 51.135C1103.28 47.199 1101.11 43.796 1098.36 42.115ZM1092.58 39.778C1094.42 39.778 1096.14 40.229 1097.7 41.008V40.27H1098.36V41.377C1100.65 42.648 1102.42 44.944 1103.28 47.322V40.27H1103.93V62H1103.28V54.907C1102.46 57.244 1100.65 59.663 1098.36 60.934V62H1097.7V61.262C1096.14 62.041 1094.42 62.492 1092.58 62.492C1086.3 62.492 1081.22 57.408 1081.22 51.135C1081.22 44.862 1086.3 39.778 1092.58 39.778ZM1092.58 61.836C1094.42 61.836 1096.19 61.385 1097.7 60.565V53.841C1096.72 55.645 1094.79 56.916 1092.58 56.916C1089.38 56.916 1086.8 54.333 1086.8 51.135C1086.8 47.937 1089.38 45.354 1092.58 45.354C1094.79 45.354 1096.72 46.625 1097.7 48.47V41.746C1096.19 40.926 1094.42 40.434 1092.58 40.434C1086.67 40.434 1081.88 45.231 1081.88 51.135C1081.88 57.039 1086.67 61.836 1092.58 61.836ZM1092.58 56.26C1095.45 56.26 1097.7 53.964 1097.7 51.135C1097.7 48.306 1095.45 46.01 1092.58 46.01C1089.75 46.01 1087.45 48.306 1087.45 51.135C1087.45 53.964 1089.75 56.26 1092.58 56.26ZM1130.13 40.27L1115.95 71.02H1115.25L1117.79 65.526L1114.92 59.376L1109.55 71.02H1108.85L1114.59 58.597L1106.02 40.27H1106.72L1114.92 57.859L1117.75 51.75L1112.42 40.27H1113.12L1118.12 50.971L1123.04 40.27H1123.74L1118.45 51.709L1121.32 57.859L1129.44 40.27H1130.13ZM1118.16 64.747L1120.99 58.638L1118.12 52.488L1115.29 58.638L1118.16 64.747ZM1130.07 46.953C1130.07 42.976 1133.27 39.778 1137.25 39.778C1140.2 39.778 1142.74 41.582 1143.85 44.124L1143.24 44.411C1142.25 42.074 1139.91 40.434 1137.25 40.434C1133.64 40.434 1130.73 43.345 1130.73 46.953C1130.73 50.028 1132.82 52.57 1135.69 53.308L1137.5 53.759C1138.19 53.923 1138.68 54.579 1138.68 55.317C1138.68 56.219 1137.99 56.916 1137.09 56.916C1136.39 56.916 1135.81 56.506 1135.57 55.85L1136.18 55.604C1136.31 55.973 1136.63 56.26 1137.09 56.26C1137.62 56.26 1138.03 55.85 1138.03 55.317C1138.03 54.866 1137.78 54.497 1137.33 54.374L1135.49 53.923C1132.37 53.144 1130.07 50.315 1130.07 46.953ZM1130.48 58.187L1131.1 57.9C1132.08 60.237 1134.38 61.836 1137.09 61.836C1140.69 61.836 1143.6 58.925 1143.6 55.317C1143.6 52.242 1141.51 49.7 1138.64 48.962L1136.84 48.511C1136.1 48.306 1135.65 47.691 1135.65 46.953C1135.65 46.051 1136.35 45.354 1137.25 45.354C1137.95 45.354 1138.52 45.805 1138.73 46.42L1138.15 46.666C1138.03 46.297 1137.66 46.01 1137.25 46.01C1136.72 46.01 1136.31 46.42 1136.31 46.953C1136.31 47.404 1136.55 47.773 1137 47.896L1138.85 48.347C1142.01 49.126 1144.26 51.955 1144.26 55.317C1144.26 59.294 1141.06 62.492 1137.09 62.492C1134.13 62.492 1131.59 60.729 1130.48 58.187ZM1170.41 33.3H1171.07L1182.67 62H1182.01L1180.33 57.818H1174.92L1176.6 62H1175.95L1174.26 57.818H1161.1L1159.42 62H1158.77L1160.45 57.818H1155.04L1153.35 62H1152.7L1164.34 33.3H1165L1167.7 40.024L1170.41 33.3ZM1163.69 51.586H1171.72L1167.7 41.664L1163.69 51.586ZM1164.67 34.12L1157.62 51.586H1163.03L1167.38 40.844L1164.67 34.12ZM1168.03 40.844L1172.38 51.586H1177.79L1170.74 34.12L1168.03 40.844ZM1161.39 57.162H1173.98L1171.97 52.242H1163.4L1161.39 57.162ZM1172.62 52.242L1174.63 57.162H1180.05L1178.08 52.242H1172.62ZM1160.73 57.162L1162.74 52.242H1157.33L1155.32 57.162H1160.73ZM1189.85 62V42.689C1187.63 44.042 1184.93 46.83 1184.93 51.709V62H1184.27V40.27H1184.93V47.732C1185.95 44.903 1187.55 43.304 1189.85 41.951V40.27H1190.5V41.582C1192.14 40.762 1193.91 40.352 1195.63 40.352V41.008C1193.91 41.008 1192.1 41.459 1190.5 42.32V49.044C1191.45 47.199 1193.41 45.928 1195.63 45.928V46.584C1192.76 46.584 1190.5 48.88 1190.5 51.709V62H1189.85ZM1203.66 62V42.689C1201.45 44.042 1198.74 46.83 1198.74 51.709V62H1198.08V40.27H1198.74V47.732C1199.76 44.903 1201.36 43.304 1203.66 41.951V40.27H1204.32V41.582C1205.96 40.762 1207.72 40.352 1209.44 40.352V41.008C1207.72 41.008 1205.91 41.459 1204.32 42.32V49.044C1205.26 47.199 1207.23 45.928 1209.44 45.928V46.584C1206.57 46.584 1204.32 48.88 1204.32 51.709V62H1203.66ZM1227.36 42.115V60.155C1230.11 58.474 1232.28 55.071 1232.28 51.135C1232.28 47.199 1230.11 43.796 1227.36 42.115ZM1221.58 39.778C1223.43 39.778 1225.15 40.229 1226.71 41.008V40.27H1227.36V41.377C1229.66 42.648 1231.42 44.944 1232.28 47.322V40.27H1232.94V62H1232.28V54.907C1231.46 57.244 1229.66 59.663 1227.36 60.934V62H1226.71V61.262C1225.15 62.041 1223.43 62.492 1221.58 62.492C1215.31 62.492 1210.23 57.408 1210.23 51.135C1210.23 44.862 1215.31 39.778 1221.58 39.778ZM1221.58 61.836C1223.43 61.836 1225.19 61.385 1226.71 60.565V53.841C1225.72 55.645 1223.8 56.916 1221.58 56.916C1218.39 56.916 1215.8 54.333 1215.8 51.135C1215.8 47.937 1218.39 45.354 1221.58 45.354C1223.8 45.354 1225.72 46.625 1226.71 48.47V41.746C1225.19 40.926 1223.43 40.434 1221.58 40.434C1215.68 40.434 1210.88 45.231 1210.88 51.135C1210.88 57.039 1215.68 61.836 1221.58 61.836ZM1221.58 56.26C1224.45 56.26 1226.71 53.964 1226.71 51.135C1226.71 48.306 1224.45 46.01 1221.58 46.01C1218.75 46.01 1216.46 48.306 1216.46 51.135C1216.46 53.964 1218.75 56.26 1221.58 56.26ZM1259.14 40.27L1244.95 71.02H1244.26L1246.8 65.526L1243.93 59.376L1238.56 71.02H1237.86L1243.6 58.597L1235.03 40.27H1235.73L1243.93 57.859L1246.76 51.75L1241.43 40.27H1242.12L1247.13 50.971L1252.05 40.27H1252.74L1247.45 51.709L1250.32 57.859L1258.44 40.27H1259.14ZM1247.17 64.747L1250 58.638L1247.13 52.488L1244.3 58.638L1247.17 64.747ZM1259.08 46.953C1259.08 42.976 1262.28 39.778 1266.26 39.778C1269.21 39.778 1271.75 41.582 1272.86 44.124L1272.24 44.411C1271.26 42.074 1268.92 40.434 1266.26 40.434C1262.65 40.434 1259.74 43.345 1259.74 46.953C1259.74 50.028 1261.83 52.57 1264.7 53.308L1266.5 53.759C1267.2 53.923 1267.69 54.579 1267.69 55.317C1267.69 56.219 1266.99 56.916 1266.09 56.916C1265.39 56.916 1264.82 56.506 1264.57 55.85L1265.19 55.604C1265.31 55.973 1265.64 56.26 1266.09 56.26C1266.62 56.26 1267.03 55.85 1267.03 55.317C1267.03 54.866 1266.79 54.497 1266.34 54.374L1264.49 53.923C1261.38 53.144 1259.08 50.315 1259.08 46.953ZM1259.49 58.187L1260.11 57.9C1261.09 60.237 1263.39 61.836 1266.09 61.836C1269.7 61.836 1272.61 58.925 1272.61 55.317C1272.61 52.242 1270.52 49.7 1267.65 48.962L1265.85 48.511C1265.11 48.306 1264.66 47.691 1264.66 46.953C1264.66 46.051 1265.35 45.354 1266.26 45.354C1266.95 45.354 1267.53 45.805 1267.73 46.42L1267.16 46.666C1267.03 46.297 1266.67 46.01 1266.26 46.01C1265.72 46.01 1265.31 46.42 1265.31 46.953C1265.31 47.404 1265.56 47.773 1266.01 47.896L1267.85 48.347C1271.01 49.126 1273.27 51.955 1273.27 55.317C1273.27 59.294 1270.07 62.492 1266.09 62.492C1263.14 62.492 1260.6 60.729 1259.49 58.187ZM1299.42 33.3H1300.07L1311.68 62H1311.02L1309.34 57.818H1303.93L1305.61 62H1304.95L1303.27 57.818H1290.11L1288.43 62H1287.77L1289.45 57.818H1284.04L1282.36 62H1281.7L1293.35 33.3H1294L1296.71 40.024L1299.42 33.3ZM1292.69 51.586H1300.73L1296.71 41.664L1292.69 51.586ZM1293.68 34.12L1286.62 51.586H1292.04L1296.38 40.844L1293.68 34.12ZM1297.04 40.844L1301.38 51.586H1306.8L1299.74 34.12L1297.04 40.844ZM1290.4 57.162H1302.98L1300.97 52.242H1292.41L1290.4 57.162ZM1301.63 52.242L1303.64 57.162H1309.05L1307.08 52.242H1301.63ZM1289.74 57.162L1291.75 52.242H1286.34L1284.33 57.162H1289.74ZM1318.85 62V42.689C1316.64 44.042 1313.93 46.83 1313.93 51.709V62H1313.28V40.27H1313.93V47.732C1314.96 44.903 1316.56 43.304 1318.85 41.951V40.27H1319.51V41.582C1321.15 40.762 1322.91 40.352 1324.63 40.352V41.008C1322.91 41.008 1321.11 41.459 1319.51 42.32V49.044C1320.45 47.199 1322.42 45.928 1324.63 45.928V46.584C1321.76 46.584 1319.51 48.88 1319.51 51.709V62H1318.85ZM1332.67 62V42.689C1330.45 44.042 1327.75 46.83 1327.75 51.709V62H1327.09V40.27H1327.75V47.732C1328.77 44.903 1330.37 43.304 1332.67 41.951V40.27H1333.32V41.582C1334.96 40.762 1336.72 40.352 1338.45 40.352V41.008C1336.72 41.008 1334.92 41.459 1333.32 42.32V49.044C1334.26 47.199 1336.23 45.928 1338.45 45.928V46.584C1335.58 46.584 1333.32 48.88 1333.32 51.709V62H1332.67ZM1356.37 42.115V60.155C1359.12 58.474 1361.29 55.071 1361.29 51.135C1361.29 47.199 1359.12 43.796 1356.37 42.115ZM1350.59 39.778C1352.43 39.778 1354.16 40.229 1355.71 41.008V40.27H1356.37V41.377C1358.67 42.648 1360.43 44.944 1361.29 47.322V40.27H1361.95V62H1361.29V54.907C1360.47 57.244 1358.67 59.663 1356.37 60.934V62H1355.71V61.262C1354.16 62.041 1352.43 62.492 1350.59 62.492C1344.32 62.492 1339.23 57.408 1339.23 51.135C1339.23 44.862 1344.32 39.778 1350.59 39.778ZM1350.59 61.836C1352.43 61.836 1354.2 61.385 1355.71 60.565V53.841C1354.73 55.645 1352.8 56.916 1350.59 56.916C1347.39 56.916 1344.81 54.333 1344.81 51.135C1344.81 47.937 1347.39 45.354 1350.59 45.354C1352.8 45.354 1354.73 46.625 1355.71 48.47V41.746C1354.2 40.926 1352.43 40.434 1350.59 40.434C1344.69 40.434 1339.89 45.231 1339.89 51.135C1339.89 57.039 1344.69 61.836 1350.59 61.836ZM1350.59 56.26C1353.46 56.26 1355.71 53.964 1355.71 51.135C1355.71 48.306 1353.46 46.01 1350.59 46.01C1347.76 46.01 1345.46 48.306 1345.46 51.135C1345.46 53.964 1347.76 56.26 1350.59 56.26ZM1388.14 40.27L1373.96 71.02H1373.26L1375.8 65.526L1372.93 59.376L1367.56 71.02H1366.87L1372.61 58.597L1364.04 40.27H1364.73L1372.93 57.859L1375.76 51.75L1370.43 40.27H1371.13L1376.13 50.971L1381.05 40.27H1381.75L1376.46 51.709L1379.33 57.859L1387.45 40.27H1388.14ZM1376.17 64.747L1379 58.638L1376.13 52.488L1373.3 58.638L1376.17 64.747ZM1388.09 46.953C1388.09 42.976 1391.28 39.778 1395.26 39.778C1398.21 39.778 1400.76 41.582 1401.86 44.124L1401.25 44.411C1400.26 42.074 1397.93 40.434 1395.26 40.434C1391.65 40.434 1388.74 43.345 1388.74 46.953C1388.74 50.028 1390.83 52.57 1393.7 53.308L1395.51 53.759C1396.2 53.923 1396.7 54.579 1396.7 55.317C1396.7 56.219 1396 56.916 1395.1 56.916C1394.4 56.916 1393.83 56.506 1393.58 55.85L1394.2 55.604C1394.32 55.973 1394.65 56.26 1395.1 56.26C1395.63 56.26 1396.04 55.85 1396.04 55.317C1396.04 54.866 1395.79 54.497 1395.34 54.374L1393.5 53.923C1390.38 53.144 1388.09 50.315 1388.09 46.953ZM1388.5 58.187L1389.11 57.9C1390.1 60.237 1392.39 61.836 1395.1 61.836C1398.71 61.836 1401.62 58.925 1401.62 55.317C1401.62 52.242 1399.53 49.7 1396.66 48.962L1394.85 48.511C1394.11 48.306 1393.66 47.691 1393.66 46.953C1393.66 46.051 1394.36 45.354 1395.26 45.354C1395.96 45.354 1396.53 45.805 1396.74 46.42L1396.16 46.666C1396.04 46.297 1395.67 46.01 1395.26 46.01C1394.73 46.01 1394.32 46.42 1394.32 46.953C1394.32 47.404 1394.56 47.773 1395.02 47.896L1396.86 48.347C1400.02 49.126 1402.27 51.955 1402.27 55.317C1402.27 59.294 1399.07 62.492 1395.1 62.492C1392.15 62.492 1389.6 60.729 1388.5 58.187ZM1428.42 33.3H1429.08L1440.68 62H1440.03L1438.34 57.818H1432.93L1434.61 62H1433.96L1432.28 57.818H1419.12L1417.43 62H1416.78L1418.46 57.818H1413.05L1411.37 62H1410.71L1422.35 33.3H1423.01L1425.72 40.024L1428.42 33.3ZM1421.7 51.586H1429.73L1425.72 41.664L1421.7 51.586ZM1422.68 34.12L1415.63 51.586H1421.04L1425.39 40.844L1422.68 34.12ZM1426.04 40.844L1430.39 51.586H1435.8L1428.75 34.12L1426.04 40.844ZM1419.4 57.162H1431.99L1429.98 52.242H1421.41L1419.4 57.162ZM1430.64 52.242L1432.65 57.162H1438.06L1436.09 52.242H1430.64ZM1418.75 57.162L1420.76 52.242H1415.34L1413.33 57.162H1418.75ZM1447.86 62V42.689C1445.64 44.042 1442.94 46.83 1442.94 51.709V62H1442.28V40.27H1442.94V47.732C1443.96 44.903 1445.56 43.304 1447.86 41.951V40.27H1448.51V41.582C1450.15 40.762 1451.92 40.352 1453.64 40.352V41.008C1451.92 41.008 1450.11 41.459 1448.51 42.32V49.044C1449.46 47.199 1451.42 45.928 1453.64 45.928V46.584C1450.77 46.584 1448.51 48.88 1448.51 51.709V62H1447.86ZM1461.67 62V42.689C1459.46 44.042 1456.75 46.83 1456.75 51.709V62H1456.1V40.27H1456.75V47.732C1457.78 44.903 1459.38 43.304 1461.67 41.951V40.27H1462.33V41.582C1463.97 40.762 1465.73 40.352 1467.45 40.352V41.008C1465.73 41.008 1463.93 41.459 1462.33 42.32V49.044C1463.27 47.199 1465.24 45.928 1467.45 45.928V46.584C1464.58 46.584 1462.33 48.88 1462.33 51.709V62H1461.67ZM1485.38 42.115V60.155C1488.12 58.474 1490.3 55.071 1490.3 51.135C1490.3 47.199 1488.12 43.796 1485.38 42.115ZM1479.6 39.778C1481.44 39.778 1483.16 40.229 1484.72 41.008V40.27H1485.38V41.377C1487.67 42.648 1489.44 44.944 1490.3 47.322V40.27H1490.95V62H1490.3V54.907C1489.48 57.244 1487.67 59.663 1485.38 60.934V62H1484.72V61.262C1483.16 62.041 1481.44 62.492 1479.6 62.492C1473.32 62.492 1468.24 57.408 1468.24 51.135C1468.24 44.862 1473.32 39.778 1479.6 39.778ZM1479.6 61.836C1481.44 61.836 1483.2 61.385 1484.72 60.565V53.841C1483.74 55.645 1481.81 56.916 1479.6 56.916C1476.4 56.916 1473.81 54.333 1473.81 51.135C1473.81 47.937 1476.4 45.354 1479.6 45.354C1481.81 45.354 1483.74 46.625 1484.72 48.47V41.746C1483.2 40.926 1481.44 40.434 1479.6 40.434C1473.69 40.434 1468.89 45.231 1468.89 51.135C1468.89 57.039 1473.69 61.836 1479.6 61.836ZM1479.6 56.26C1482.47 56.26 1484.72 53.964 1484.72 51.135C1484.72 48.306 1482.47 46.01 1479.6 46.01C1476.77 46.01 1474.47 48.306 1474.47 51.135C1474.47 53.964 1476.77 56.26 1479.6 56.26ZM1517.15 40.27L1502.96 71.02H1502.27L1504.81 65.526L1501.94 59.376L1496.57 71.02H1495.87L1501.61 58.597L1493.04 40.27H1493.74L1501.94 57.859L1504.77 51.75L1499.44 40.27H1500.14L1505.14 50.971L1510.06 40.27H1510.75L1505.47 51.709L1508.34 57.859L1516.45 40.27H1517.15ZM1505.18 64.747L1508.01 58.638L1505.14 52.488L1502.31 58.638L1505.18 64.747ZM1517.09 46.953C1517.09 42.976 1520.29 39.778 1524.27 39.778C1527.22 39.778 1529.76 41.582 1530.87 44.124L1530.25 44.411C1529.27 42.074 1526.93 40.434 1524.27 40.434C1520.66 40.434 1517.75 43.345 1517.75 46.953C1517.75 50.028 1519.84 52.57 1522.71 53.308L1524.51 53.759C1525.21 53.923 1525.7 54.579 1525.7 55.317C1525.7 56.219 1525 56.916 1524.1 56.916C1523.41 56.916 1522.83 56.506 1522.59 55.85L1523.2 55.604C1523.32 55.973 1523.65 56.26 1524.1 56.26C1524.64 56.26 1525.05 55.85 1525.05 55.317C1525.05 54.866 1524.8 54.497 1524.35 54.374L1522.5 53.923C1519.39 53.144 1517.09 50.315 1517.09 46.953ZM1517.5 58.187L1518.12 57.9C1519.1 60.237 1521.4 61.836 1524.1 61.836C1527.71 61.836 1530.62 58.925 1530.62 55.317C1530.62 52.242 1528.53 49.7 1525.66 48.962L1523.86 48.511C1523.12 48.306 1522.67 47.691 1522.67 46.953C1522.67 46.051 1523.36 45.354 1524.27 45.354C1524.96 45.354 1525.54 45.805 1525.74 46.42L1525.17 46.666C1525.05 46.297 1524.68 46.01 1524.27 46.01C1523.73 46.01 1523.32 46.42 1523.32 46.953C1523.32 47.404 1523.57 47.773 1524.02 47.896L1525.87 48.347C1529.02 49.126 1531.28 51.955 1531.28 55.317C1531.28 59.294 1528.08 62.492 1524.1 62.492C1521.15 62.492 1518.61 60.729 1517.5 58.187ZM1557.43 33.3H1558.08L1569.69 62H1569.03L1567.35 57.818H1561.94L1563.62 62H1562.96L1561.28 57.818H1548.12L1546.44 62H1545.78L1547.47 57.818H1542.05L1540.37 62H1539.72L1551.36 33.3H1552.02L1554.72 40.024L1557.43 33.3ZM1550.7 51.586H1558.74L1554.72 41.664L1550.7 51.586ZM1551.69 34.12L1544.64 51.586H1550.05L1554.39 40.844L1551.69 34.12ZM1555.05 40.844L1559.4 51.586H1564.81L1557.76 34.12L1555.05 40.844ZM1548.41 57.162H1561L1558.99 52.242H1550.42L1548.41 57.162ZM1559.64 52.242L1561.65 57.162H1567.06L1565.1 52.242H1559.64ZM1547.75 57.162L1549.76 52.242H1544.35L1542.34 57.162H1547.75ZM1576.86 62V42.689C1574.65 44.042 1571.94 46.83 1571.94 51.709V62H1571.29V40.27H1571.94V47.732C1572.97 44.903 1574.57 43.304 1576.86 41.951V40.27H1577.52V41.582C1579.16 40.762 1580.92 40.352 1582.64 40.352V41.008C1580.92 41.008 1579.12 41.459 1577.52 42.32V49.044C1578.46 47.199 1580.43 45.928 1582.64 45.928V46.584C1579.77 46.584 1577.52 48.88 1577.52 51.709V62H1576.86ZM1590.68 62V42.689C1588.46 44.042 1585.76 46.83 1585.76 51.709V62H1585.1V40.27H1585.76V47.732C1586.78 44.903 1588.38 43.304 1590.68 41.951V40.27H1591.33V41.582C1592.97 40.762 1594.74 40.352 1596.46 40.352V41.008C1594.74 41.008 1592.93 41.459 1591.33 42.32V49.044C1592.28 47.199 1594.24 45.928 1596.46 45.928V46.584C1593.59 46.584 1591.33 48.88 1591.33 51.709V62H1590.68ZM1614.38 42.115V60.155C1617.13 58.474 1619.3 55.071 1619.3 51.135C1619.3 47.199 1617.13 43.796 1614.38 42.115ZM1608.6 39.778C1610.45 39.778 1612.17 40.229 1613.73 41.008V40.27H1614.38V41.377C1616.68 42.648 1618.44 44.944 1619.3 47.322V40.27H1619.96V62H1619.3V54.907C1618.48 57.244 1616.68 59.663 1614.38 60.934V62H1613.73V61.262C1612.17 62.041 1610.45 62.492 1608.6 62.492C1602.33 62.492 1597.24 57.408 1597.24 51.135C1597.24 44.862 1602.33 39.778 1608.6 39.778ZM1608.6 61.836C1610.45 61.836 1612.21 61.385 1613.73 60.565V53.841C1612.74 55.645 1610.82 56.916 1608.6 56.916C1605.4 56.916 1602.82 54.333 1602.82 51.135C1602.82 47.937 1605.4 45.354 1608.6 45.354C1610.82 45.354 1612.74 46.625 1613.73 48.47V41.746C1612.21 40.926 1610.45 40.434 1608.6 40.434C1602.7 40.434 1597.9 45.231 1597.9 51.135C1597.9 57.039 1602.7 61.836 1608.6 61.836ZM1608.6 56.26C1611.47 56.26 1613.73 53.964 1613.73 51.135C1613.73 48.306 1611.47 46.01 1608.6 46.01C1605.77 46.01 1603.48 48.306 1603.48 51.135C1603.48 53.964 1605.77 56.26 1608.6 56.26ZM1646.16 40.27L1631.97 71.02H1631.27L1633.82 65.526L1630.95 59.376L1625.57 71.02H1624.88L1630.62 58.597L1622.05 40.27H1622.75L1630.95 57.859L1633.77 51.75L1628.44 40.27H1629.14L1634.14 50.971L1639.06 40.27H1639.76L1634.47 51.709L1637.34 57.859L1645.46 40.27H1646.16ZM1634.18 64.747L1637.01 58.638L1634.14 52.488L1631.31 58.638L1634.18 64.747ZM1646.1 46.953C1646.1 42.976 1649.3 39.778 1653.27 39.778C1656.22 39.778 1658.77 41.582 1659.87 44.124L1659.26 44.411C1658.27 42.074 1655.94 40.434 1653.27 40.434C1649.66 40.434 1646.75 43.345 1646.75 46.953C1646.75 50.028 1648.84 52.57 1651.71 53.308L1653.52 53.759C1654.22 53.923 1654.71 54.579 1654.71 55.317C1654.71 56.219 1654.01 56.916 1653.11 56.916C1652.41 56.916 1651.84 56.506 1651.59 55.85L1652.21 55.604C1652.33 55.973 1652.66 56.26 1653.11 56.26C1653.64 56.26 1654.05 55.85 1654.05 55.317C1654.05 54.866 1653.81 54.497 1653.35 54.374L1651.51 53.923C1648.39 53.144 1646.1 50.315 1646.1 46.953ZM1646.51 58.187L1647.12 57.9C1648.11 60.237 1650.4 61.836 1653.11 61.836C1656.72 61.836 1659.63 58.925 1659.63 55.317C1659.63 52.242 1657.54 49.7 1654.67 48.962L1652.86 48.511C1652.12 48.306 1651.67 47.691 1651.67 46.953C1651.67 46.051 1652.37 45.354 1653.27 45.354C1653.97 45.354 1654.54 45.805 1654.75 46.42L1654.17 46.666C1654.05 46.297 1653.68 46.01 1653.27 46.01C1652.74 46.01 1652.33 46.42 1652.33 46.953C1652.33 47.404 1652.58 47.773 1653.03 47.896L1654.87 48.347C1658.03 49.126 1660.28 51.955 1660.28 55.317C1660.28 59.294 1657.09 62.492 1653.11 62.492C1650.16 62.492 1647.61 60.729 1646.51 58.187ZM1686.43 33.3H1687.09L1698.69 62H1698.04L1696.36 57.818H1690.94L1692.63 62H1691.97L1690.29 57.818H1677.13L1675.45 62H1674.79L1676.47 57.818H1671.06L1669.38 62H1668.72L1680.37 33.3H1681.02L1683.73 40.024L1686.43 33.3ZM1679.71 51.586H1687.75L1683.73 41.664L1679.71 51.586ZM1680.69 34.12L1673.64 51.586H1679.05L1683.4 40.844L1680.69 34.12ZM1684.06 40.844L1688.4 51.586H1693.81L1686.76 34.12L1684.06 40.844ZM1677.41 57.162H1690L1687.99 52.242H1679.42L1677.41 57.162ZM1688.65 52.242L1690.66 57.162H1696.07L1694.1 52.242H1688.65ZM1676.76 57.162L1678.77 52.242H1673.36L1671.35 57.162H1676.76ZM1705.87 62V42.689C1703.66 44.042 1700.95 46.83 1700.95 51.709V62H1700.29V40.27H1700.95V47.732C1701.97 44.903 1703.57 43.304 1705.87 41.951V40.27H1706.53V41.582C1708.17 40.762 1709.93 40.352 1711.65 40.352V41.008C1709.93 41.008 1708.12 41.459 1706.53 42.32V49.044C1707.47 47.199 1709.44 45.928 1711.65 45.928V46.584C1708.78 46.584 1706.53 48.88 1706.53 51.709V62H1705.87ZM1719.68 62V42.689C1717.47 44.042 1714.76 46.83 1714.76 51.709V62H1714.11V40.27H1714.76V47.732C1715.79 44.903 1717.39 43.304 1719.68 41.951V40.27H1720.34V41.582C1721.98 40.762 1723.74 40.352 1725.46 40.352V41.008C1723.74 41.008 1721.94 41.459 1720.34 42.32V49.044C1721.28 47.199 1723.25 45.928 1725.46 45.928V46.584C1722.59 46.584 1720.34 48.88 1720.34 51.709V62H1719.68ZM1743.39 42.115V60.155C1746.14 58.474 1748.31 55.071 1748.31 51.135C1748.31 47.199 1746.14 43.796 1743.39 42.115ZM1737.61 39.778C1739.45 39.778 1741.17 40.229 1742.73 41.008V40.27H1743.39V41.377C1745.68 42.648 1747.45 44.944 1748.31 47.322V40.27H1748.96V62H1748.31V54.907C1747.49 57.244 1745.68 59.663 1743.39 60.934V62H1742.73V61.262C1741.17 62.041 1739.45 62.492 1737.61 62.492C1731.33 62.492 1726.25 57.408 1726.25 51.135C1726.25 44.862 1731.33 39.778 1737.61 39.778ZM1737.61 61.836C1739.45 61.836 1741.22 61.385 1742.73 60.565V53.841C1741.75 55.645 1739.82 56.916 1737.61 56.916C1734.41 56.916 1731.83 54.333 1731.83 51.135C1731.83 47.937 1734.41 45.354 1737.61 45.354C1739.82 45.354 1741.75 46.625 1742.73 48.47V41.746C1741.22 40.926 1739.45 40.434 1737.61 40.434C1731.7 40.434 1726.91 45.231 1726.91 51.135C1726.91 57.039 1731.7 61.836 1737.61 61.836ZM1737.61 56.26C1740.48 56.26 1742.73 53.964 1742.73 51.135C1742.73 48.306 1740.48 46.01 1737.61 46.01C1734.78 46.01 1732.48 48.306 1732.48 51.135C1732.48 53.964 1734.78 56.26 1737.61 56.26ZM1775.16 40.27L1760.98 71.02H1760.28L1762.82 65.526L1759.95 59.376L1754.58 71.02H1753.88L1759.62 58.597L1751.05 40.27H1751.75L1759.95 57.859L1762.78 51.75L1757.45 40.27H1758.15L1763.15 50.971L1768.07 40.27H1768.77L1763.48 51.709L1766.35 57.859L1774.47 40.27H1775.16ZM1763.19 64.747L1766.02 58.638L1763.15 52.488L1760.32 58.638L1763.19 64.747ZM1775.1 46.953C1775.1 42.976 1778.3 39.778 1782.28 39.778C1785.23 39.778 1787.77 41.582 1788.88 44.124L1788.26 44.411C1787.28 42.074 1784.94 40.434 1782.28 40.434C1778.67 40.434 1775.76 43.345 1775.76 46.953C1775.76 50.028 1777.85 52.57 1780.72 53.308L1782.52 53.759C1783.22 53.923 1783.71 54.579 1783.71 55.317C1783.71 56.219 1783.02 56.916 1782.11 56.916C1781.42 56.916 1780.84 56.506 1780.6 55.85L1781.21 55.604C1781.34 55.973 1781.66 56.26 1782.11 56.26C1782.65 56.26 1783.06 55.85 1783.06 55.317C1783.06 54.866 1782.81 54.497 1782.36 54.374L1780.52 53.923C1777.4 53.144 1775.1 50.315 1775.1 46.953ZM1775.51 58.187L1776.13 57.9C1777.11 60.237 1779.41 61.836 1782.11 61.836C1785.72 61.836 1788.63 58.925 1788.63 55.317C1788.63 52.242 1786.54 49.7 1783.67 48.962L1781.87 48.511C1781.13 48.306 1780.68 47.691 1780.68 46.953C1780.68 46.051 1781.38 45.354 1782.28 45.354C1782.98 45.354 1783.55 45.805 1783.75 46.42L1783.18 46.666C1783.06 46.297 1782.69 46.01 1782.28 46.01C1781.75 46.01 1781.34 46.42 1781.34 46.953C1781.34 47.404 1781.58 47.773 1782.03 47.896L1783.88 48.347C1787.03 49.126 1789.29 51.955 1789.29 55.317C1789.29 59.294 1786.09 62.492 1782.11 62.492C1779.16 62.492 1776.62 60.729 1775.51 58.187ZM1815.44 33.3H1816.1L1827.7 62H1827.04L1825.36 57.818H1819.95L1821.63 62H1820.98L1819.29 57.818H1806.13L1804.45 62H1803.8L1805.48 57.818H1800.07L1798.38 62H1797.73L1809.37 33.3H1810.03L1812.73 40.024L1815.44 33.3ZM1808.72 51.586H1816.75L1812.73 41.664L1808.72 51.586ZM1809.7 34.12L1802.65 51.586H1808.06L1812.41 40.844L1809.7 34.12ZM1813.06 40.844L1817.41 51.586H1822.82L1815.77 34.12L1813.06 40.844ZM1806.42 57.162H1819.01L1817 52.242H1808.43L1806.42 57.162ZM1817.65 52.242L1819.66 57.162H1825.08L1823.11 52.242H1817.65ZM1805.76 57.162L1807.77 52.242H1802.36L1800.35 57.162H1805.76ZM1834.88 62V42.689C1832.66 44.042 1829.96 46.83 1829.96 51.709V62H1829.3V40.27H1829.96V47.732C1830.98 44.903 1832.58 43.304 1834.88 41.951V40.27H1835.53V41.582C1837.17 40.762 1838.93 40.352 1840.66 40.352V41.008C1838.93 41.008 1837.13 41.459 1835.53 42.32V49.044C1836.47 47.199 1838.44 45.928 1840.66 45.928V46.584C1837.79 46.584 1835.53 48.88 1835.53 51.709V62H1834.88ZM1848.69 62V42.689C1846.47 44.042 1843.77 46.83 1843.77 51.709V62H1843.11V40.27H1843.77V47.732C1844.79 44.903 1846.39 43.304 1848.69 41.951V40.27H1849.34V41.582C1850.98 40.762 1852.75 40.352 1854.47 40.352V41.008C1852.75 41.008 1850.94 41.459 1849.34 42.32V49.044C1850.29 47.199 1852.26 45.928 1854.47 45.928V46.584C1851.6 46.584 1849.34 48.88 1849.34 51.709V62H1848.69ZM1872.39 42.115V60.155C1875.14 58.474 1877.31 55.071 1877.31 51.135C1877.31 47.199 1875.14 43.796 1872.39 42.115ZM1866.61 39.778C1868.46 39.778 1870.18 40.229 1871.74 41.008V40.27H1872.39V41.377C1874.69 42.648 1876.45 44.944 1877.31 47.322V40.27H1877.97V62H1877.31V54.907C1876.49 57.244 1874.69 59.663 1872.39 60.934V62H1871.74V61.262C1870.18 62.041 1868.46 62.492 1866.61 62.492C1860.34 62.492 1855.26 57.408 1855.26 51.135C1855.26 44.862 1860.34 39.778 1866.61 39.778ZM1866.61 61.836C1868.46 61.836 1870.22 61.385 1871.74 60.565V53.841C1870.75 55.645 1868.83 56.916 1866.61 56.916C1863.42 56.916 1860.83 54.333 1860.83 51.135C1860.83 47.937 1863.42 45.354 1866.61 45.354C1868.83 45.354 1870.75 46.625 1871.74 48.47V41.746C1870.22 40.926 1868.46 40.434 1866.61 40.434C1860.71 40.434 1855.91 45.231 1855.91 51.135C1855.91 57.039 1860.71 61.836 1866.61 61.836ZM1866.61 56.26C1869.48 56.26 1871.74 53.964 1871.74 51.135C1871.74 48.306 1869.48 46.01 1866.61 46.01C1863.78 46.01 1861.49 48.306 1861.49 51.135C1861.49 53.964 1863.78 56.26 1866.61 56.26ZM1904.17 40.27L1889.98 71.02H1889.29L1891.83 65.526L1888.96 59.376L1883.59 71.02H1882.89L1888.63 58.597L1880.06 40.27H1880.76L1888.96 57.859L1891.79 51.75L1886.46 40.27H1887.15L1892.16 50.971L1897.08 40.27H1897.77L1892.48 51.709L1895.35 57.859L1903.47 40.27H1904.17ZM1892.2 64.747L1895.03 58.638L1892.16 52.488L1889.33 58.638L1892.2 64.747ZM1904.11 46.953C1904.11 42.976 1907.31 39.778 1911.28 39.778C1914.24 39.778 1916.78 41.582 1917.89 44.124L1917.27 44.411C1916.29 42.074 1913.95 40.434 1911.28 40.434C1907.68 40.434 1904.77 43.345 1904.77 46.953C1904.77 50.028 1906.86 52.57 1909.73 53.308L1911.53 53.759C1912.23 53.923 1912.72 54.579 1912.72 55.317C1912.72 56.219 1912.02 56.916 1911.12 56.916C1910.42 56.916 1909.85 56.506 1909.6 55.85L1910.22 55.604C1910.34 55.973 1910.67 56.26 1911.12 56.26C1911.65 56.26 1912.06 55.85 1912.06 55.317C1912.06 54.866 1911.82 54.497 1911.37 54.374L1909.52 53.923C1906.41 53.144 1904.11 50.315 1904.11 46.953ZM1904.52 58.187L1905.13 57.9C1906.12 60.237 1908.41 61.836 1911.12 61.836C1914.73 61.836 1917.64 58.925 1917.64 55.317C1917.64 52.242 1915.55 49.7 1912.68 48.962L1910.87 48.511C1910.14 48.306 1909.69 47.691 1909.69 46.953C1909.69 46.051 1910.38 45.354 1911.28 45.354C1911.98 45.354 1912.56 45.805 1912.76 46.42L1912.19 46.666C1912.06 46.297 1911.69 46.01 1911.28 46.01C1910.75 46.01 1910.34 46.42 1910.34 46.953C1910.34 47.404 1910.59 47.773 1911.04 47.896L1912.88 48.347C1916.04 49.126 1918.3 51.955 1918.3 55.317C1918.3 59.294 1915.1 62.492 1911.12 62.492C1908.17 62.492 1905.63 60.729 1904.52 58.187Z" fill="white"/>
</g>
<defs>
<clipPath id="clip0_0_26">
<rect width="1940" height="343" fill="white"/>
</clipPath>
</defs>
</svg>
